# xmcd
#
# Track frame offsets:
# 150
# 15902
# 31515
# 43038
# 63304
# 75634
# 91591
# 106179
# 123990
# 134060
# 150442
# 161600
#
# Disc length: 2525 seconds
#
#
# Revision: 0
# Processed by: cddbd v1.5PL3 Copyright (c) Steve Scherf et al.
# Submitted via: FreeRIP 2.52 
#
DISCID=7f09db0c
DTITLE=H. Cain - It's all about time
DYEAR=2004
DGENRE=Instrumental
TTITLE0=Restless Traveller
TTITLE1=Must be comin' home
TTITLE2=Half way down the river
TTITLE3=Trouble with love
TTITLE4=It's all about time
TTITLE5=Somethings going on
TTITLE6=Everybody falls in love
TTITLE7=Resolutions
TTITLE8=Out of time
TTITLE9=Lynn
TTITLE10=Valence here we go again
TTITLE11=There's always a song with no name
EXTD=
EXTT0=
EXTT1=
EXTT2=
EXTT3=
EXTT4=
EXTT5=
EXTT6=
EXTT7=
EXTT8=
EXTT9=
EXTT10=
EXTT11=
PLAYORDER=
